<svg id="visual" viewBox="0 0 900 600" width="900" height="600" xmlns="http://www.w3.org/2000/svg" xmlns:xlink="http://www.w3.org/1999/xlink" version="1.1"><path d="M0 425L21.5 386.8C43 348.7 86 272.3 128.8 269.2C171.7 266 214.3 336 257.2 375.2C300 414.3 343 422.7 385.8 399.8C428.7 377 471.3 323 514.2 323.5C557 324 600 379 642.8 367.3C685.7 355.7 728.3 277.3 771.2 253.5C814 229.7 857 260.3 878.5 275.7L900 291L900 601L878.5 601C857 601 814 601 771.2 601C728.3 601 685.7 601 642.8 601C600 601 557 601 514.2 601C471.3 601 428.7 601 385.8 601C343 601 300 601 257.2 601C214.3 601 171.7 601 128.8 601C86 601 43 601 21.5 601L0 601Z" fill="#0066FF" stroke-linecap="round" stroke-linejoin="miter"></path></svg>